<svg width="320" height="320" viewBox="0 0 320 320" fill="none" xmlns="http://www.w3.org/2000/svg">
<g clip-path="url(#clip0_18_28)">
<circle cx="160" cy="160" r="160" fill="url(#paint0_linear_18_28)"/>
<path d="M92.4814 110.5H112.731C119.565 110.5 124.69 112.333 128.106 116C131.523 119.667 133.231 125.042 133.231 132.125V140.75C133.231 147.833 131.523 153.208 128.106 156.875C124.69 160.542 119.565 162.375 112.731 162.375H106.231V198H92.4814V110.5ZM112.731 149.875C114.981 149.875 116.648 149.25 117.731 148C118.898 146.75 119.481 144.625 119.481 141.625V131.25C119.481 128.25 118.898 126.125 117.731 124.875C116.648 123.625 114.981 123 112.731 123H106.231V149.875H112.731ZM140.699 110.5H161.449C168.533 110.5 173.699 112.167 176.949 115.5C180.199 118.75 181.824 123.792 181.824 130.625V134.125C181.824 138.625 181.074 142.292 179.574 145.125C178.158 147.958 175.949 150 172.949 151.25V151.5C179.783 153.833 183.199 159.917 183.199 169.75V177.25C183.199 184 181.408 189.167 177.824 192.75C174.324 196.25 169.158 198 162.324 198H140.699V110.5ZM159.824 146.125C162.574 146.125 164.616 145.417 165.949 144C167.366 142.583 168.074 140.208 168.074 136.875V132C168.074 128.833 167.491 126.542 166.324 125.125C165.241 123.708 163.491 123 161.074 123H154.449V146.125H159.824ZM162.324 185.5C164.741 185.5 166.533 184.875 167.699 183.625C168.866 182.292 169.449 180.042 169.449 176.875V169.25C169.449 165.25 168.741 162.5 167.324 161C165.991 159.417 163.741 158.625 160.574 158.625H154.449V185.5H162.324Z" fill="#2138B0"/>
<path d="M201.986 123H187.611V110.5H230.111V123H215.736V198H201.986V123Z" fill="black"/>
</g>
<defs>
<linearGradient id="paint0_linear_18_28" x1="160" y1="0" x2="160" y2="320" gradientUnits="userSpaceOnUse">
<stop stop-color="white"/>
<stop offset="1" stop-color="#C7EEFF"/>
</linearGradient>
<clipPath id="clip0_18_28">
<rect width="320" height="320" fill="white"/>
</clipPath>
</defs>
</svg>
